<?xml version="1.0" encoding="utf-8"?>
<!-- Generator: Adobe Illustrator 25.2.3, SVG Export Plug-In . SVG Version: 6.00 Build 0)  -->
<svg version="1.1" id="Ebene_1" xmlns="http://www.w3.org/2000/svg" xmlns:xlink="http://www.w3.org/1999/xlink" x="0px" y="0px"
	 viewBox="0 0 218 86" style="enable-background:new 0 0 218 86;" xml:space="preserve">
<style type="text/css">
	.st0{fill:#47D6C1;}
	.st1{fill:#FFFFFF;}
</style>
<g>
	<path class="st0" d="M65.1,26.4L35.8,52.6c0,0-15.8,13.8-18.6,15.8c-0.3,0.2-0.6-0.1-0.7-0.2c-0.3-0.7-0.3-2.8-0.3-4.2V6H7.4v58.1
		c0,4.6-0.6,13.2,9.4,13.2c1.6,0,4.5,0,24.9-18.1l0,0l0,0c0.1,0,0.1-0.1,0.2-0.1l0,0L65.1,38V26.4z"/>
	<path class="st1" d="M93.2,5.6c-2,0.1-3.8,0.6-19.3,13.5C73.9,11.9,68,6,60.7,6H46.3C39,6,33.1,11.9,33.1,19.1v35.8
		c0.9-0.8,2.6-2.3,2.6-2.3l6.1-5.5v-28c0-2.4,2-4.4,4.4-4.4h14.4c2.4,0,4.4,2,4.4,4.4v7.3l0,0V38l0,0v25.7c0,2.4-2,4.4-4.4,4.4H46.3
		c-2.4,0-4.4-2-4.4-4.4V59l0,0l0,0c-0.1,0-0.1,0.1-0.2,0.1l0,0l0,0c-3.2,2.8-5.9,5.2-8.3,7.2c1.3,6,6.6,10.5,12.9,10.5h14.4
		c7.3,0,13.2-5.9,13.2-13.2v-33l0.1,0.1c7.5-6.6,16-13.9,18.8-16c0.3-0.2,0.8,0,0.8,0.2c0.1,0.3,0.1,3.2,0.1,4.2v57.6h8.8V19.1
		C102.6,11.4,103.5,5.2,93.2,5.6z"/>
</g>
<g>
	<path class="st1" d="M124.3,29.7c2,0,3.6,0.7,4.9,2c1.3,1.3,2,2.9,2,4.8c0,1.9-0.7,3.5-2,4.8c-1.3,1.3-3,2-4.9,2h-5V29.7H124.3z
		 M122.2,32.3v8.3h2.1c1.1,0,2.1-0.4,2.9-1.2c0.8-0.8,1.2-1.8,1.2-2.9s-0.4-2.1-1.2-2.9s-1.7-1.2-2.9-1.2H122.2z"/>
	<path class="st1" d="M135.8,32.1c-0.3,0.3-0.7,0.4-1.1,0.4c-0.4,0-0.8-0.1-1-0.4c-0.3-0.3-0.4-0.6-0.4-1s0.1-0.8,0.4-1
		c0.3-0.3,0.6-0.4,1-0.4c0.5,0,0.9,0.1,1.1,0.4c0.3,0.3,0.4,0.6,0.4,1S136.1,31.9,135.8,32.1z M136,43.2h-2.6v-9.4h2.6V43.2z"/>
	<path class="st1" d="M145,41.7c0,0-0.1,0.1-0.1,0.1c-0.1,0.1-0.2,0.2-0.3,0.3c-0.2,0.2-0.4,0.3-0.6,0.4c-0.2,0.1-0.5,0.2-0.8,0.3
		c-0.3,0.1-0.7,0.1-1,0.1c-1.1,0-2.1-0.5-2.9-1.4c-0.9-0.9-1.3-2-1.3-3.3c0-1.3,0.4-2.4,1.3-3.3s1.8-1.4,2.9-1.4
		c0.5,0,1,0.1,1.5,0.3c0.5,0.2,0.8,0.4,1,0.7l0.3,0.3v-1.2h2.6v8.7c0,1.4-0.5,2.5-1.4,3.4c-0.9,0.9-2.1,1.4-3.6,1.4
		c-0.5,0-1.1-0.1-1.6-0.2c-0.5-0.1-0.9-0.3-1.2-0.5c-0.3-0.2-0.6-0.4-0.9-0.6c-0.2-0.2-0.4-0.4-0.5-0.5l-0.2-0.2l1.6-1.5
		c0.1,0.1,0.2,0.2,0.3,0.3c0.1,0.1,0.4,0.3,0.9,0.6c0.5,0.2,0.9,0.3,1.4,0.3c0.8,0,1.4-0.2,1.8-0.7c0.4-0.4,0.7-1.1,0.7-1.8V41.7z
		 M141.3,40c0.4,0.4,0.9,0.7,1.5,0.7s1.1-0.2,1.6-0.7s0.7-1,0.7-1.6s-0.2-1.2-0.7-1.6s-1-0.7-1.6-0.7s-1.1,0.2-1.5,0.7
		s-0.6,1-0.6,1.7S140.9,39.5,141.3,40z"/>
	<path class="st1" d="M152.6,32.1c-0.3,0.3-0.7,0.4-1.1,0.4c-0.4,0-0.8-0.1-1-0.4c-0.3-0.3-0.4-0.6-0.4-1s0.1-0.8,0.4-1
		c0.3-0.3,0.6-0.4,1-0.4c0.5,0,0.9,0.1,1.1,0.4c0.3,0.3,0.4,0.6,0.4,1S152.9,31.9,152.6,32.1z M152.8,43.2h-2.6v-9.4h2.6V43.2z"/>
	<path class="st1" d="M156.6,31h2.3v3h1.9v2.3h-1.9V40c0,0.3,0.1,0.5,0.3,0.8c0.2,0.2,0.5,0.3,0.8,0.3c0.2,0,0.3,0,0.5-0.1
		c0.2,0,0.3-0.1,0.4-0.1l0.1,0v2.2c-0.5,0.2-1.1,0.3-1.7,0.3c-2,0-3-1.1-3-3.3v-3.8h-1.6V34h0.9c0.3,0,0.5-0.1,0.8-0.3
		c0.2-0.2,0.3-0.5,0.3-0.9V31z"/>
	<path class="st1" d="M168,42.3c-0.1,0.1-0.2,0.2-0.3,0.3c-0.1,0.1-0.4,0.3-0.9,0.5s-0.9,0.3-1.4,0.3c-0.9,0-1.7-0.3-2.3-0.8
		s-0.9-1.2-0.9-1.9c0-0.8,0.2-1.4,0.7-1.9c0.5-0.5,1.2-0.8,2-1l3-0.5c0-0.4-0.1-0.7-0.4-1c-0.3-0.3-0.7-0.4-1.2-0.4
		c-0.4,0-0.8,0.1-1.2,0.2c-0.4,0.2-0.6,0.3-0.7,0.5l-0.2,0.2l-1.4-1.4c0,0,0.1-0.1,0.2-0.2c0.1-0.1,0.2-0.2,0.4-0.4
		c0.2-0.2,0.5-0.4,0.7-0.5c0.3-0.2,0.6-0.3,1.1-0.4s0.9-0.2,1.3-0.2c1.2,0,2.2,0.4,2.9,1.1c0.8,0.7,1.1,1.6,1.1,2.7v5.9H168
		L168,42.3z M167.5,40.7c0.3-0.4,0.5-0.9,0.5-1.6v-0.3l-2.1,0.4c-0.7,0.1-1.1,0.5-1.1,1.1c0,0.6,0.4,1,1.2,1
		C166.7,41.3,167.2,41.1,167.5,40.7z"/>
	<path class="st1" d="M175.8,43.2h-2.6V29.7h2.6V43.2z"/>
	<path class="st1" d="M127.8,46.7c0.6,0.2,1.2,0.4,1.6,0.7c0.4,0.3,0.8,0.5,1.1,0.8c0.3,0.3,0.5,0.5,0.7,0.7l0.2,0.3l-1.8,1.8
		c0-0.1-0.1-0.1-0.2-0.2c-0.1-0.1-0.2-0.2-0.4-0.5c-0.2-0.2-0.5-0.4-0.7-0.6c-0.3-0.2-0.6-0.3-1.1-0.5s-0.9-0.2-1.3-0.2
		c-1.3,0-2.3,0.4-3.2,1.3c-0.8,0.8-1.3,1.9-1.3,3.2s0.4,2.3,1.3,3.2c0.8,0.8,1.9,1.3,3.2,1.3c0.5,0,1-0.1,1.4-0.2
		c0.4-0.1,0.8-0.3,1.1-0.5c0.3-0.2,0.6-0.4,0.8-0.6c0.2-0.2,0.4-0.4,0.5-0.5l0.2-0.2l1.7,1.8c0,0.1-0.1,0.2-0.2,0.3
		s-0.3,0.3-0.7,0.6c-0.4,0.3-0.7,0.6-1.1,0.8c-0.4,0.2-0.9,0.4-1.6,0.6c-0.7,0.2-1.3,0.3-2,0.3c-2.1,0-3.8-0.7-5.2-2.1
		c-1.4-1.4-2.1-3-2.1-5s0.7-3.6,2.1-5s3.1-2.1,5.2-2.1C126.5,46.5,127.2,46.6,127.8,46.7z"/>
	<path class="st1" d="M138.4,59.3c-0.1,0.1-0.2,0.2-0.3,0.3c-0.1,0.1-0.4,0.3-0.9,0.5s-0.9,0.3-1.4,0.3c-0.9,0-1.7-0.3-2.3-0.8
		s-0.9-1.2-0.9-1.9c0-0.8,0.2-1.4,0.7-1.9c0.5-0.5,1.2-0.8,2-1l3-0.5c0-0.4-0.1-0.7-0.4-1c-0.3-0.3-0.7-0.4-1.2-0.4
		c-0.4,0-0.8,0.1-1.2,0.2c-0.4,0.2-0.6,0.3-0.7,0.5l-0.2,0.2l-1.4-1.4c0,0,0.1-0.1,0.2-0.2c0.1-0.1,0.2-0.2,0.4-0.4
		c0.2-0.2,0.5-0.4,0.7-0.5c0.3-0.2,0.6-0.3,1.1-0.4s0.9-0.2,1.3-0.2c1.2,0,2.2,0.4,2.9,1.1c0.8,0.7,1.1,1.6,1.1,2.7v5.9h-2.6
		L138.4,59.3z M137.9,57.7c0.3-0.4,0.5-0.9,0.5-1.6v-0.3l-2.1,0.4c-0.7,0.1-1.1,0.5-1.1,1.1c0,0.6,0.4,1,1.2,1
		C137.1,58.3,137.5,58.1,137.9,57.7z"/>
	<path class="st1" d="M155.2,55c0-0.6-0.1-1.1-0.4-1.4s-0.7-0.5-1.1-0.5c-0.5,0-0.9,0.2-1.2,0.6c-0.3,0.4-0.5,0.9-0.5,1.6v4.9h-2.6
		V55c0-0.6-0.1-1.1-0.4-1.4s-0.7-0.5-1.1-0.5c-0.5,0-0.9,0.2-1.2,0.6s-0.5,0.9-0.5,1.6v4.9h-2.6v-9.4h2.6v1.2
		c0.1-0.1,0.2-0.2,0.3-0.4c0.1-0.1,0.4-0.3,0.8-0.6c0.4-0.3,0.9-0.4,1.4-0.4c0.4,0,0.7,0.1,1,0.2c0.3,0.1,0.6,0.3,0.8,0.4
		c0.2,0.2,0.4,0.3,0.5,0.5c0.1,0.2,0.2,0.3,0.3,0.4l0.1,0.2c0,0,0.1-0.1,0.1-0.2c0.1-0.1,0.2-0.2,0.4-0.4c0.2-0.2,0.4-0.4,0.6-0.5
		c0.2-0.1,0.5-0.3,0.9-0.4c0.4-0.1,0.7-0.2,1.1-0.2c1,0,1.9,0.3,2.5,1c0.6,0.7,0.9,1.7,0.9,3.1v5.5h-2.6V55z"/>
	<path class="st1" d="M164.2,60.1c-0.5-0.2-0.8-0.4-1-0.7l-0.3-0.3v5.2h-2.6V50.8h2.6v1.2c0,0,0.1-0.1,0.1-0.1
		c0.1-0.1,0.2-0.2,0.3-0.3c0.2-0.2,0.4-0.3,0.6-0.4s0.5-0.2,0.8-0.3c0.3-0.1,0.7-0.1,1-0.1c1.2,0,2.3,0.5,3.2,1.4s1.3,2.1,1.3,3.5
		s-0.4,2.5-1.3,3.5s-2,1.4-3.2,1.4C165.2,60.4,164.7,60.3,164.2,60.1z M163.6,53.6c-0.5,0.5-0.7,1.1-0.7,1.9c0,0.8,0.2,1.4,0.7,1.9
		c0.5,0.5,1,0.7,1.6,0.7s1.2-0.2,1.6-0.7c0.4-0.5,0.7-1.1,0.7-1.9c0-0.8-0.2-1.4-0.7-1.9c-0.4-0.5-1-0.7-1.6-0.7
		S164.1,53.2,163.6,53.6z"/>
	<path class="st1" d="M178.5,59.3c-0.1,0.1-0.2,0.2-0.3,0.3c-0.1,0.1-0.4,0.3-0.9,0.5s-1,0.3-1.5,0.3c-1.1,0-2-0.4-2.6-1.1
		s-1-1.7-1-2.9v-5.6h2.6v5.4c0,0.5,0.2,1,0.5,1.3c0.3,0.3,0.8,0.5,1.3,0.5c0.6,0,1.1-0.2,1.4-0.6c0.3-0.4,0.5-0.9,0.5-1.6v-5h2.6
		v9.4h-2.6V59.3z"/>
	<path class="st1" d="M188.9,53.6c0,0-0.1-0.1-0.2-0.2c-0.1-0.1-0.3-0.2-0.5-0.3s-0.5-0.2-0.8-0.2c-0.4,0-0.6,0.1-0.8,0.2
		c-0.2,0.2-0.3,0.3-0.3,0.5c0,0.2,0.1,0.4,0.4,0.6c0.3,0.2,0.7,0.3,1.1,0.4c0.4,0.1,0.9,0.3,1.3,0.5c0.4,0.2,0.8,0.5,1.1,0.9
		c0.3,0.4,0.4,0.9,0.4,1.5c0,0.8-0.3,1.6-1,2.1c-0.7,0.6-1.6,0.9-2.7,0.9c-0.5,0-1-0.1-1.4-0.2s-0.8-0.3-1.1-0.4s-0.5-0.3-0.7-0.5
		s-0.4-0.3-0.5-0.4l-0.1-0.2l1.4-1.4c0,0.1,0.1,0.2,0.2,0.3c0.1,0.1,0.3,0.3,0.7,0.5c0.4,0.2,0.7,0.3,1.1,0.3c0.4,0,0.7-0.1,0.9-0.2
		c0.2-0.2,0.3-0.4,0.3-0.6s-0.1-0.5-0.4-0.6c-0.3-0.2-0.7-0.3-1.1-0.5c-0.4-0.1-0.9-0.3-1.3-0.5s-0.8-0.5-1.1-0.8
		c-0.3-0.4-0.4-0.9-0.4-1.4c0-0.8,0.4-1.4,1.1-2.1s1.6-0.9,2.6-0.9c0.7,0,1.3,0.1,1.8,0.4c0.5,0.2,0.9,0.5,1.1,0.7l0.3,0.4
		L188.9,53.6z"/>
	<path class="st1" d="M117.9,63.7h3.1l3.5,10l3.5-10h3.1l-5,13.5h-3.1L117.9,63.7z"/>
	<path class="st1" d="M138.7,75.9c-1,1-2.2,1.5-3.5,1.5c-1.3,0-2.5-0.5-3.5-1.5c-1-1-1.5-2.1-1.5-3.4s0.5-2.5,1.5-3.4
		c1-1,2.2-1.5,3.5-1.5c1.3,0,2.5,0.5,3.5,1.5c1,1,1.5,2.1,1.5,3.4S139.7,75,138.7,75.9z M133.6,74.3c0.5,0.5,1,0.7,1.6,0.7
		c0.6,0,1.2-0.2,1.6-0.7c0.5-0.5,0.7-1.1,0.7-1.8s-0.2-1.3-0.7-1.8c-0.5-0.5-1-0.7-1.6-0.7c-0.6,0-1.2,0.2-1.6,0.7
		c-0.5,0.5-0.7,1.1-0.7,1.8S133.2,73.8,133.6,74.3z"/>
	<path class="st1" d="M147.8,70.3c-0.2-0.1-0.5-0.1-0.9-0.1c-0.7,0-1.2,0.2-1.6,0.6c-0.4,0.4-0.6,1.1-0.6,1.9v4.5h-2.6v-9.4h2.6v1.2
		c0.1-0.1,0.2-0.2,0.3-0.3c0.1-0.1,0.4-0.3,0.9-0.6c0.5-0.2,1-0.3,1.5-0.3h0.4V70.3z"/>
	<path class="st1" d="M154.5,76.3c-0.1,0.1-0.2,0.2-0.3,0.3c-0.1,0.1-0.4,0.3-0.9,0.5s-0.9,0.3-1.4,0.3c-0.9,0-1.7-0.3-2.3-0.8
		s-0.9-1.2-0.9-1.9c0-0.8,0.2-1.4,0.7-1.9c0.5-0.5,1.2-0.8,2-1l3-0.5c0-0.4-0.1-0.7-0.4-1c-0.3-0.3-0.7-0.4-1.2-0.4
		c-0.4,0-0.8,0.1-1.2,0.2c-0.4,0.2-0.6,0.3-0.7,0.5l-0.2,0.2l-1.4-1.4c0,0,0.1-0.1,0.2-0.2c0.1-0.1,0.2-0.2,0.4-0.4
		c0.2-0.2,0.5-0.4,0.7-0.5c0.3-0.2,0.6-0.3,1.1-0.4s0.9-0.2,1.3-0.2c1.2,0,2.2,0.4,2.9,1.1c0.8,0.7,1.1,1.6,1.1,2.7v5.9h-2.6
		L154.5,76.3z M153.9,74.7c0.3-0.4,0.5-0.9,0.5-1.6v-0.3l-2.1,0.4c-0.7,0.1-1.1,0.5-1.1,1.1c0,0.6,0.4,1,1.2,1
		C153.1,75.3,153.6,75.1,153.9,74.7z"/>
	<path class="st1" d="M165.2,70.3c-0.2-0.1-0.5-0.1-0.9-0.1c-0.7,0-1.2,0.2-1.6,0.6c-0.4,0.4-0.6,1.1-0.6,1.9v4.5h-2.6v-9.4h2.6v1.2
		c0.1-0.1,0.2-0.2,0.3-0.3c0.1-0.1,0.4-0.3,0.9-0.6c0.5-0.2,1-0.3,1.5-0.3h0.4V70.3z"/>
	<path class="st1" d="M169.4,77.2h-2.6V63.7h2.6V77.2z"/>
	<path class="st1" d="M180.6,69c0.9,0.9,1.3,2.1,1.3,3.5s-0.5,2.5-1.3,3.5c-0.9,0.9-2,1.4-3.2,1.4c-0.5,0-1-0.1-1.5-0.3
		c-0.5-0.2-0.8-0.4-1-0.7l-0.3-0.3v1.2h-2.6V63.7h2.6v5.2c0,0,0.1-0.1,0.1-0.1c0-0.1,0.2-0.2,0.3-0.3c0.2-0.2,0.4-0.3,0.6-0.4
		s0.5-0.2,0.8-0.3c0.3-0.1,0.7-0.1,1-0.1C178.7,67.6,179.7,68.1,180.6,69z M178.6,74.4c0.4-0.5,0.7-1.1,0.7-1.9
		c0-0.8-0.2-1.4-0.7-1.9c-0.4-0.5-1-0.7-1.6-0.7c-0.6,0-1.2,0.2-1.6,0.7c-0.4,0.5-0.7,1.1-0.7,1.9c0,0.8,0.2,1.4,0.7,1.9
		c0.4,0.5,1,0.7,1.6,0.7C177.6,75.1,178.2,74.9,178.6,74.4z"/>
	<path class="st1" d="M186,73.4c0.1,0.5,0.4,0.9,0.8,1.3c0.4,0.4,1,0.5,1.7,0.5c0.5,0,0.9-0.1,1.4-0.3c0.4-0.2,0.7-0.4,0.9-0.6
		L191,74l1.3,1.7l-0.2,0.2c-0.1,0.1-0.2,0.2-0.5,0.4c-0.3,0.2-0.5,0.4-0.8,0.5c-0.3,0.1-0.7,0.3-1.1,0.4c-0.5,0.1-0.9,0.2-1.4,0.2
		c-1.4,0-2.6-0.5-3.5-1.4s-1.5-2.1-1.5-3.5c0-1.3,0.5-2.5,1.4-3.5c1-1,2.1-1.4,3.5-1.4s2.5,0.4,3.4,1.3c0.9,0.9,1.3,2,1.3,3.4
		l-0.1,1.1H186z M186.8,70.3c-0.4,0.3-0.7,0.7-0.8,1.2h4.3c-0.1-0.5-0.3-0.9-0.7-1.2c-0.4-0.3-0.8-0.5-1.4-0.5S187.2,70,186.8,70.3z
		"/>
	<path class="st1" d="M200.5,70.3c-0.2-0.1-0.5-0.1-0.9-0.1c-0.7,0-1.2,0.2-1.6,0.6c-0.4,0.4-0.6,1.1-0.6,1.9v4.5h-2.6v-9.4h2.6v1.2
		c0.1-0.1,0.2-0.2,0.3-0.3c0.1-0.1,0.4-0.3,0.9-0.6c0.5-0.2,1-0.3,1.5-0.3h0.4V70.3z"/>
	<path class="st1" d="M208.4,75.7c0,0-0.1,0.1-0.1,0.1c-0.1,0.1-0.2,0.2-0.3,0.3c-0.2,0.2-0.4,0.3-0.6,0.4c-0.2,0.1-0.5,0.2-0.8,0.3
		c-0.3,0.1-0.7,0.1-1,0.1c-1.1,0-2.1-0.5-2.9-1.4c-0.9-0.9-1.3-2-1.3-3.3c0-1.3,0.4-2.4,1.3-3.3s1.8-1.4,2.9-1.4
		c0.5,0,1,0.1,1.5,0.3c0.5,0.2,0.8,0.4,1,0.7l0.3,0.3v-1.2h2.6v8.7c0,1.4-0.5,2.5-1.4,3.4c-0.9,0.9-2.1,1.4-3.6,1.4
		c-0.5,0-1.1-0.1-1.6-0.2c-0.5-0.1-0.9-0.3-1.2-0.5c-0.3-0.2-0.6-0.4-0.9-0.6c-0.2-0.2-0.4-0.4-0.5-0.5l-0.2-0.2l1.6-1.5
		c0.1,0.1,0.2,0.2,0.3,0.3c0.1,0.1,0.4,0.3,0.9,0.6c0.5,0.2,0.9,0.3,1.4,0.3c0.8,0,1.4-0.2,1.8-0.7c0.4-0.4,0.7-1.1,0.7-1.8V75.7z
		 M204.7,74c0.4,0.4,0.9,0.7,1.5,0.7s1.1-0.2,1.6-0.7s0.7-1,0.7-1.6s-0.2-1.2-0.7-1.6s-1-0.7-1.6-0.7s-1.1,0.2-1.5,0.7
		s-0.6,1-0.6,1.7S204.3,73.5,204.7,74z"/>
</g>
</svg>
